/* XPM */
static xpm_row_t const aimWait_xpm[] = {
"35 35 2 1",
" 	c None",
".	c #FF0000",
"             .........             ",
"          ...............          ",
"         .................         ",
"       .....................       ",
"      ......     .     ......      ",
"     .....       .       .....     ",
"    .....        .        .....    ",
"   .....         .         .....   ",
"   ....          .          ....   ",
"  ....           .           ....  ",
" ....            .            .... ",
" ....                         .... ",
" ...                           ... ",
"....                           ....",
"....                           ....",
"....             .             ....",
"....             .             ....",
"...........    .....    ...........",
"....             .             ....",
"....             .             ....",
"....                           ....",
"....                           ....",
" ...                           ... ",
" ....                         .... ",
" ....            .            .... ",
"  ....           .           ....  ",
"   ....          .          ....   ",
"   .....         .         .....   ",
"    .....        .        .....    ",
"     .....       .       .....     ",
"      ......     .     ......      ",
"       .....................       ",
"         .................         ",
"          ...............          ",
"             .........             "};
