/* XPM */
static xpm_row_t const asteroidM_xpm[] = {
"60 66 236 2",
"  	c None",
". 	c #626262",
"+ 	c #6F6F6F",
"@ 	c #717171",
"# 	c #6A6A6A",
"$ 	c #5D5D5D",
"% 	c #696969",
"& 	c #6E6E6E",
"* 	c #6B6B6B",
"= 	c #838383",
"- 	c #8D8D8D",
"; 	c #929292",
"> 	c #8F8F8F",
", 	c #878787",
"' 	c #818181",
") 	c #7A7A7A",
"! 	c #797979",
"~ 	c #7E7E7E",
"{ 	c #7F7F7F",
"] 	c #828282",
"^ 	c #858585",
"/ 	c #848484",
"( 	c #787878",
"_ 	c #7C7C7C",
": 	c #767676",
"< 	c #4C4C4C",
"[ 	c #777777",
"} 	c #9A9A9A",
"| 	c #AEAEAE",
"1 	c #AFAFAF",
"2 	c #A7A7A7",
"3 	c #A1A1A1",
"4 	c #9E9E9E",
"5 	c #9D9D9D",
"6 	c #949494",
"7 	c #8A8A8A",
"8 	c #868686",
"9 	c #898989",
"0 	c #747474",
"a 	c #424242",
"b 	c #5A5A5A",
"c 	c #7D7D7D",
"d 	c #9B9B9B",
"e 	c #B0B0B0",
"f 	c #B8B8B8",
"g 	c #B1B1B1",
"h 	c #AAAAAA",
"i 	c #ABABAB",
"j 	c #A2A2A2",
"k 	c #989898",
"l 	c #8C8C8C",
"m 	c #8E8E8E",
"n 	c #A0A0A0",
"o 	c #909090",
"p 	c #808080",
"q 	c #757575",
"r 	c #292929",
"s 	c #2E2E2E",
"t 	c #313131",
"u 	c #373737",
"v 	c #3E3E3E",
"w 	c #444444",
"x 	c #464646",
"y 	c #656565",
"z 	c #B5B5B5",
"A 	c #A8A8A8",
"B 	c #A6A6A6",
"C 	c #B6B6B6",
"D 	c #939393",
"E 	c #999999",
"F 	c #9C9C9C",
"G 	c #BCBCBC",
"H 	c #BABABA",
"I 	c #BBBBBB",
"J 	c #B2B2B2",
"K 	c #9F9F9F",
"L 	c #3A3A3A",
"M 	c #494949",
"N 	c #4F4F4F",
"O 	c #565656",
"P 	c #5B5B5B",
"Q 	c #A3A3A3",
"R 	c #ACACAC",
"S 	c #ADADAD",
"T 	c #959595",
"U 	c #BDBDBD",
"V 	c #969696",
"W 	c #8B8B8B",
"X 	c #454545",
"Y 	c #515151",
"Z 	c #606060",
"` 	c #666666",
" .	c #686868",
"..	c #646464",
"+.	c #636363",
"@.	c #A5A5A5",
"#.	c #919191",
"$.	c #A4A4A4",
"%.	c #676767",
"&.	c #525252",
"*.	c #5E5E5E",
"=.	c #616161",
"-.	c #6C6C6C",
";.	c #727272",
">.	c #979797",
",.	c #A9A9A9",
"'.	c #535353",
").	c #505050",
"!.	c #545454",
"~.	c #6D6D6D",
"{.	c #555555",
"].	c #B4B4B4",
"^.	c #888888",
"/.	c #343434",
"(.	c #707070",
"_.	c #B7B7B7",
":.	c #7B7B7B",
"<.	c #B3B3B3",
"[.	c #333333",
"}.	c #4D4D4D",
"|.	c #BEBEBE",
"1.	c #B9B9B9",
"2.	c #171717",
"3.	c #4B4B4B",
"4.	c #191919",
"5.	c #363636",
"6.	c #4A4A4A",
"7.	c #595959",
"8.	c #202020",
"9.	c #3B3B3B",
"0.	c #474747",
"a.	c #585858",
"b.	c #737373",
"c.	c #262626",
"d.	c #3C3C3C",
"e.	c #575757",
"f.	c #5C5C5C",
"g.	c #1D1D1D",
"h.	c #2C2C2C",
"i.	c #434343",
"j.	c #C0C0C0",
"k.	c #222222",
"l.	c #353535",
"m.	c #5F5F5F",
"n.	c #C1C1C1",
"o.	c #C5C5C5",
"p.	c #212121",
"q.	c #272727",
"r.	c #3F3F3F",
"s.	c #252525",
"t.	c #2A2A2A",
"u.	c #BFBFBF",
"v.	c #CACACA",
"w.	c #C7C7C7",
"x.	c #181818",
"y.	c #303030",
"z.	c #C4C4C4",
"A.	c #D8D8D8",
"B.	c #D7D7D7",
"C.	c #CFCFCF",
"D.	c #090909",
"E.	c #1E1E1E",
"F.	c #C3C3C3",
"G.	c #CDCDCD",
"H.	c #D9D9D9",
"I.	c #DBDBDB",
"J.	c #C6C6C6",
"K.	c #0E0E0E",
"L.	c #C8C8C8",
"M.	c #D0D0D0",
"N.	c #151515",
"O.	c #DDDDDD",
"P.	c #DADADA",
"Q.	c #C2C2C2",
"R.	c #0F0F0F",
"S.	c #131313",
"T.	c #1F1F1F",
"U.	c #393939",
"V.	c #D5D5D5",
"W.	c #CBCBCB",
"X.	c #CECECE",
"Y.	c #D1D1D1",
"Z.	c #1A1A1A",
"`.	c #484848",
" +	c #D4D4D4",
".+	c #E2E2E2",
"++	c #DEDEDE",
"@+	c #D6D6D6",
"#+	c #DFDFDF",
"$+	c #D3D3D3",
"%+	c #CCCCCC",
"&+	c #101010",
"*+	c #383838",
"=+	c #D2D2D2",
"-+	c #E5E5E5",
";+	c #ECECEC",
">+	c #DCDCDC",
",+	c #C9C9C9",
"'+	c #323232",
")+	c #E4E4E4",
"!+	c #E9E9E9",
"~+	c #1C1C1C",
"{+	c #282828",
"]+	c #E1E1E1",
"^+	c #F0F0F0",
"/+	c #E8E8E8",
"(+	c #242424",
"_+	c #E6E6E6",
":+	c #0B0B0B",
"<+	c #E3E3E3",
"[+	c #080808",
"}+	c #0A0A0A",
"|+	c #4E4E4E",
"1+	c #E0E0E0",
"2+	c #3D3D3D",
"3+	c #2F2F2F",
"4+	c #232323",
"5+	c #404040",
"6+	c #111111",
"7+	c #020202",
"8+	c #161616",
"9+	c #414141",
"0+	c #2D2D2D",
"a+	c #141414",
"b+	c #010101",
"c+	c #000000",
"d+	c #0D0D0D",
"e+	c #2B2B2B",
"f+	c #050505",
"g+	c #060606",
"h+	c #040404",
"i+	c #121212",
"j+	c #070707",
"k+	c #0C0C0C",
"l+	c #030303",
"m+	c #1B1B1B",
"                                                                                                                        ",
"                                                  . + @ # $     . % & & &                                               ",
"                                              * = - ; > , ' ) ! ~ { ] ^ / ~ ( ) ~ _ :                                   ",
"                                          < [ } | 1 2 3 4 5 5 6 6 7 7 > > 8 ^ 9 , 8 ^ ^ _ 0                             ",
"                                      a b c d e f g h i e e h j k - l - m - > 6 d d n j 5 o / p q @                     ",
"                        r s t u v w x y ^ 3 1 z A 3 B h C C z n D E 4 2 2 F d } 2 e G H I J K m 7 ^ ) %                 ",
"                    L v x M N O P b # 8 d i B K 4 B Q R S B F 6 d 3 j 2 B T o D 2 S J e U H 1 3 V W ^ [                 ",
"                  X Y Z ` %  ...+.y 0 / o V T 6 d K @.h 2 4 - - m 6 F | A D m #.d } 6 K h R h $.d ; , ! %.              ",
"                &.*.. +.. +.=.Z  .-.;.) ~ p ^ l } 4 3 j k W 8 8 9 >.4 ,.j > W m - - #.d 5 K n F d } ; 8 ( &             ",
"              '.*.. ` *.b ).!.=.~.;.( ~ 8 ; >.F K K } E > { p W l ; F ,.j D > m ; 5 @.,.2 j n 3 2 @.5 V > _ ;.          ",
"            s {.=.%.-.+ @ & & ! ] ] 8 o j 1 1 ].g E m >.> ^.8 9 = / k R Q 3 5 T 4 i | 1 i A B h S A Q $.K V !           ",
"            /.{.$ ..(.^ o > m #.m l 6 k d i _._.U i } } 6 - ^ { :.' k 1 e R j d j R | | h ,.,.e ].<.g <.R h o @         ",
"            [.}.{.b -.) l k } T = / k d n | |.H U 1.h 3 } l p _ :.' T | C i 5 5 B ,.h h 2 B ,.| g J J <.e g B ^         ",
"          2.t 3.N !...+ c ^.; 6 ] , V d S J C H 1.I S 5 d T l 9 W E 2 g e d E 3 3 d B ,.j @.2 B B ,.i S g C e } :.      ",
"          4.5.6.3.7...%.& ) c 8 = - D T 4 i J g i S 2 E d @.2 3 @.e J 1 4 o >.F o T h @.n @.2 2 B B 3 j h i F F l       ",
"          8.9.0.).%.. a.Z + b.c / W - #.m V 2 S 2 2 2 j Q R <.| h $.2 A >.> D k V j B 3 j $.2 h S | R | h Q T V 6       ",
"        4.c.d.x e.%.Z O f.# q p 8 ^ ^ m 6 4 A | S S g | 3 K ,.>.7 F | e $.>.; T K 2 $.@.$.Q j @.S f I J 1 C C R >.      ",
"        g.h.i.M 7...=.f.=.% [ / { : ) ' W F n 5 @.C j.G | K o { ] } J H i K k D d Q @.K d } F $.g 1.J K 2 _.U C j &     ",
"        k.l.w }.m.% *.{.y -.q c ( q 0 _ ^.; D ; o >.R n.o.e #./ m d e H S 2 3 d E F 4 F >.6 6 } ,.].S A S B Q 1 d +     ",
"      p.q.r.M '.. & % a.+.& ~.( / ^ ' ^.9 k 4 E >.m D e j.].d l > E 5 g I _.i $.k T 3 B j F } } 2 _.H 1.g @.@.S o %     ",
"      s.t.w '.=.~.[ : ` f.+.b.= #.>.; = _ 7 T T k d F Q h ].S d 6 F ,.u.v.w.n.C ,.,.e g J J g 1 e <.<.e i g f R m ~.    ",
"    x.q.y.}.# ;.! ~ 0 =.a.* 8 l ; k m { c ' 7 D d F F i z I ].h A S z.A.B.B.C.z.C z <.<.1.|.j.H 1 h @.2 z n.1.S - ;.    ",
"    D.E./.../ c 0 -.. ..+ ^ T m l ; 7 / - #.- #.4 K @.C G F.1.f 1.|.w.G.H.I.G.I S R ,.R |.J.n.f g @.4 h f f f A W q     ",
"    K.2.t ` b.m.e.f. .] V 3 n o ^ o m W o E ; l T K 2 j.F.G j.L.u.U <.| G M.L.C $.F 5 2 U w.z.G S 3 3 z I ].J n / 0     ",
"    N.x.c.N ).6.a.(.p 6 @.,.j E ; D k D D 3 5 #., D C O.P.Q.|.w.j.1.1 i @.1.n.U _.h ].u.J.L.z.G z ,.h G Q.U f @., ! %   ",
"    R.S.T.U.x &.y _ ^.l #.E 5 F n n 5 k j B K W l R I V.P.G.W.w.L.o.X.z.H F.j._.G G.A.V.Y.Y.L.j.C 1 f Q.w.J.I $.8 :.-.  ",
"    Z.x.k.l.`.Y O ) , ^.^.9 6 k E 5 B Q h <.A d n z.o.G  +H..+++B.G.@+X.z.F.U f L.#+.+O.A.$+%+o.C z n.L.v.z.<.K ] ) *   ",
"  &+4.s.h.*+}.&.7.q ' ' ^ , m k F V E V D e f z Q.J.<.K Q =+-+;+;+ +M.W.n.1.f w.>+.+#+O.>+>+A.M.L.,+J.,+v.|.@.>./ 0 y   ",
"  D.S.q.'+a N b % ! ~ { 7 o - 7 T V m ^ l 2 _.1.w.,+@.K J ++)+>+.+Y.n.G U U G G.P.>+P.P.++!+-+O.C.M.X.%+F.].k V ] -.Z   ",
"  S.~+{+L O 3.O & ! p / l > l :.p { E A A F <.U F.w.R S Y..+]+Y.G.j.C g f u.j.|.J.X.X.M.Y.]+^+/+ +W.n.z.|.| 6 6 c y $   ",
"  N.(+'+`...%.` ( ( :., > l = [ _ / } 1 S 5 ,.I C | z J.P.]+$+F.C g R g U J.Q.|.z.J.j.F.I..+_+@+I.%+j.,+I S 4 V [ f.!.  ",
"  :+(+v 7.. * -.~ p ] 8 - 9 { 0 b.l #.F 5 / E 1 1.G X.%+X.%+I R ,.,.,._.v.v.J.P.$+W.o.Y.++<+B.|.F.w.Q.j.e g 1 F (.P ).  ",
"  [+t.X $ $ y 0 ] 8 ^., l 8 ! ! ( q :.l ; p 8 E 5 1 =+%+n.z ,.<.u.G.|.z I L.z.,+=+%+n.=+A.V.V.z.F.U H _.J ].$.m y 7.6.  ",
"  }+'+x 3.P  .{ 9 m > W 7 = ;.~.) c _ 7 l / , } } Q w.%+|.| @.1.w.%+o.G.u.G.=+n.V.C.o.X.$+Y.V.F.U F.n.U g R d ^ P N M   ",
"  :+/.}.M |+a.[ 9 / 8 ^ = ' @ Z # :.^ - m 9 T R | 2 H v.u.1.].w.F.C.,+%+%+Q.%+C.++1+Y.f j.W.,+j.H 1.f S K j } :.'.3.M   ",
"    '+v 9.u *+7.~ ^ ' ' 7 = ;.` * c ^.m 6 o 4 z I f J @.5 S U M.Q. +X.U o.j.U L.Q.o.n.w.v.Q.n.w.I e A } V d , m.6.).}.  ",
"    *+i.2+3+4+u . ) _ :., , ;.y  .(./ T 5 3 R |.=+W.1.4 #.2 1.|.1.w.X.U H J i J.z 3 j i A 5 ,.1 $.A n 5 6 , Z v 6.f.O   ",
"    t.2+a d.(+(+Y # + _ ) _ b. ...* :.6 2 J G G.B.G.Q.B d | f S | f n.U $.A i J 1 B k n E 7 _ o ^.6 > , ] ..v U.}.Z 7.  ",
"    g.3+a 5+(+4.d.$ -.0 (.( ) 0 ` + _ - g F.P.#+C.J.U 3 V @.e g |.n.%+Q.2 $.n V @.g 2 k B ,.] > F h Q { =.&.r.0.7.=.&.  ",
"    S.(+U.X h.6+s.w *.y Z %.~.b.@ ~.: , 4 1  +@+L.F.| ; #.V >.F C H v.M.f 1.].4 k D >.j d E m } ' - ; [ f.).`.` : % 6.  ",
"    7+8+l.9+0+a+Z.y.X &.e.*.~.;.[ @ [ m V T i w.|.].@.>.W l #.D R w.=+u.E 1 G ,.5 T i v.u.> / m 8 ( p  .}.r.O b.c %.X   ",
"    b+S.s 2+{+N.8.t 9.9+O * q : [ & + ^ o j | h I f @.V - ; F B f Q.1 >.; } K B @.@.A 1 S o = T ^ : b.{.U.x . ;.;.)./.  ",
"    c+d+(+e+g.N.t.9.w 9+i.e.* : 0 :.b.: / B |.>.F 4 D W D K @.z H A ^ ' ~ ! q { ; >.9 9 8 ! _ 6 ^.P r.d.).$ %.;.P d.y.  ",
"    c+f+8+N.:+K.(+/.9.x < {.%.( ^ m ) + ! 4 ].T [ 8 { ~ m A Q n T ) ....*.!.a.*.(.-.b.@ + ) b.a.< d.v |+m.~. .{.9.t e+  ",
"    c+c+[+K.g+g+T.u v `.{.=.@ ^.#.6 ^. .. / n F :.~ 9 ^.9 8 ' 0 . b.* a.< M 0.N %.-.:.q -.@ . |+9.5.v |+|+P &.[.u '+    ",
"    c+c+b+g+[+f+Z.'+U.i.'.=.Z ;.l ; > :.%.( = 7 ^ / m D } c +.b O y y ~.% ).< '.% : ;.m.m.7.0.!.f.3.x Y M L t.*+v t.    ",
"    b+b+c+7+}+h+i+r L &.P Z .  .^ 7 = ^.! q [ { ! = V #.; ] + Z m.#  .: * ~.(.;.@ q ' b.# # %.y =.9+a v *+q.y.< w       ",
"    f+j+b+7+R.j+Z.'+w $ m.m. .[ 6 V 7 _ ;.(.: { ~ q o ; )  . ...q { (.% (.q # # %.b.: q q : (.% O u [.'+r.9.a.f.i.      ",
"    g+R.D.7+}+k+8+t.0.y # -.q c m = p & ` y + : { ' : ;.# +.P m.` %.@ # *.. % ~.;.c { :.@ ! o [ !.M 5+5+6.*.q % .       ",
"      6+&+l+}+R.6+c.M +.-.b.{ 7 ; ( _ # {.7.y (.# -. .0 & P *.O $ # # % -.-.(.+ b.b.b.:.! p c -.).`.7.m.* p b.y Z       ",
"      D.R.g+k+6+&+c.x m.# ;.^.5 Q o ^.: Z {.O *.Z *.*.b.( ..y *.+.(.b.~.(.+ ~ ) ..$ -.q & ~. .'.M a.%.* ( 9 %.7.v       ",
"        h+l+j+:+[+E.*+|+a.=.;.! ' { [ @ P ).Y |+a...Z $ +.. f.Z q [ : [ * % ( ) Z e.(.[ =.*.f.|+Y # & ` # ;.a.Y E.      ",
"        c+c+h+g+g+a+e+L 9+!.....& (.*.O '.6.< `.}.P ..e.7.{.O + V p ( b.# ;.(.: q + -.-. .!.}.).f.+ % m.b {.f.|+        ",
"        c+c+7+[+g+i+g.p./.).f.f.%.# ..7.&.M 3.).b a.%.b.f.< 7.q :.@ + ` =.$ y c ^.p _ q + a.< e...( _ . b 7.% 3.        ",
"        c+b+j+[+D.6+4.g.'+3.e.. % ` y O '.'.!.a.y a.N '.5+d.&.* 7.f.` f.$ '.=.m.=.;._ ~ 0 & . b Z ( ! *.y ~.b.`.        ",
"        c+l+R.K.R.a+E.q.L Y +.# $ . ..m.$ 7.7.b +.+.).`.X O e.x }.e.*.. ` {.a.-. .(.b.(.@ ;.+ % y ~.Z P  .@ +.w         ",
"          7+N.4.S.x.t.5.5+< !.|+M Y e.=.+.P O {.).).x x ).{.}.&.|+i.&.b *.'.e.b.b.0 % y ` ..$ *.+.Z a.b $ % 3.          ",
"          b+:+x.m+x.T.s [.U.5+w < `.`.N Y &.Y < i.U.U.U.i.X `.Y |+v w !.'...(.;.@ & =.y b.;.-.y  .(.` '.7.*.d.          ",
"            b+d+N.i+R.E.h.2+i.d.w M x r.d.L r.i.5+d.X M `.7.!.!.!.5+L i.X '.$ f.+ b.: :.7 W / ] ^./  .b &.U.            ",
"              [+g+}+}+}+N.c.t 0+s 5.l.u /.y.s 3+[.*+5.0.3.X M 6.M f.'.O ).b f.Z  .* (.) ' = 8 ] b...Z &.y.              ",
"                c+b+l+b+c+l+:+}+2.k.8.p.g.g.e+e+t.t v 5+l.l.5.l.s 9.a M }.L u u 3+'+'+y.y.t e+(+8.s {+8+                ",
"                    c+c+c+c+c+b+b+7+b+c+7+R.4.g.s.0+'+L M 0.9.5.2+v i.2+t m+l+c+c+c+c+h+[+a+p.r 4+2.N.                  ",
"                                      c+b+j+:+g+&+x.E.*+0.x a 2+v u y.m+D.h+h+f+f+7+b+f+k+a+Z.~+8+                      ",
"                                        c+c+c+c+7+b+l+K.S.s.q.p.8.a+l+b+7+h+D.g+7+c+c+c+b+b+b+b+                        ",
"                                            c+c+c+c+c+b+l+h+h+l+c+c+c+b+D.D.g+7+c+    c+                                ",
"                                                                                                                        "};
