/* XPM */
static xpm_row_t const asteroidL_xpm[] = {
"80 88 243 2",
"  	c None",
". 	c #5E5E5E",
"+ 	c #6A6A6A",
"@ 	c #757575",
"# 	c #717171",
"$ 	c #686868",
"% 	c #5D5D5D",
"& 	c #606060",
"* 	c #656565",
"= 	c #6B6B6B",
"- 	c #707070",
"; 	c #727272",
"> 	c #747474",
", 	c #666666",
"' 	c #808080",
") 	c #929292",
"! 	c #979797",
"~ 	c #9A9A9A",
"{ 	c #969696",
"] 	c #8F8F8F",
"^ 	c #8B8B8B",
"/ 	c #888888",
"( 	c #7F7F7F",
"_ 	c #797979",
": 	c #7E7E7E",
"< 	c #858585",
"[ 	c #838383",
"} 	c #868686",
"| 	c #878787",
"1 	c #8A8A8A",
"2 	c #7C7C7C",
"3 	c #777777",
"4 	c #787878",
"5 	c #818181",
"6 	c #7D7D7D",
"7 	c #393939",
"8 	c #575757",
"9 	c #9B9B9B",
"0 	c #AEAEAE",
"a 	c #ABABAB",
"b 	c #A4A4A4",
"c 	c #9F9F9F",
"d 	c #9C9C9C",
"e 	c #999999",
"f 	c #9D9D9D",
"g 	c #939393",
"h 	c #909090",
"i 	c #949494",
"j 	c #898989",
"k 	c #8C8C8C",
"l 	c #919191",
"m 	c #848484",
"n 	c #6F6F6F",
"o 	c #484848",
"p 	c #646464",
"q 	c #828282",
"r 	c #ADADAD",
"s 	c #B7B7B7",
"t 	c #BCBCBC",
"u 	c #ACACAC",
"v 	c #A8A8A8",
"w 	c #B0B0B0",
"x 	c #AAAAAA",
"y 	c #A1A1A1",
"z 	c #8E8E8E",
"A 	c #8D8D8D",
"B 	c #959595",
"C 	c #5F5F5F",
"D 	c #292929",
"E 	c #3C3C3C",
"F 	c #505050",
"G 	c #A0A0A0",
"H 	c #B9B9B9",
"I 	c #AFAFAF",
"J 	c #A2A2A2",
"K 	c #A6A6A6",
"L 	c #B1B1B1",
"M 	c #B4B4B4",
"N 	c #A9A9A9",
"O 	c #9E9E9E",
"P 	c #989898",
"Q 	c #616161",
"R 	c #262626",
"S 	c #2B2B2B",
"T 	c #2E2E2E",
"U 	c #2F2F2F",
"V 	c #353535",
"W 	c #383838",
"X 	c #3F3F3F",
"Y 	c #444444",
"Z 	c #454545",
"` 	c #565656",
" .	c #7B7B7B",
"..	c #B8B8B8",
"+.	c #A5A5A5",
"@.	c #A7A7A7",
"#.	c #BDBDBD",
"$.	c #B5B5B5",
"%.	c #C1C1C1",
"&.	c #BEBEBE",
"*.	c #BFBFBF",
"=.	c #BABABA",
"-.	c #696969",
";.	c #343434",
">.	c #3D3D3D",
",.	c #404040",
"'.	c #434343",
").	c #4A4A4A",
"!.	c #515151",
"~.	c #595959",
"{.	c #5B5B5B",
"].	c #585858",
"^.	c #626262",
"/.	c #333333",
"(.	c #4C4C4C",
"_.	c #5A5A5A",
":.	c #636363",
"<.	c #676767",
"[.	c #A3A3A3",
"}.	c #B2B2B2",
"|.	c #7A7A7A",
"1.	c #6D6D6D",
"2.	c #6E6E6E",
"3.	c #494949",
"4.	c #525252",
"5.	c #6C6C6C",
"6.	c #737373",
"7.	c #1F1F1F",
"8.	c #767676",
"9.	c #242424",
"0.	c #4E4E4E",
"a.	c #B3B3B3",
"b.	c #2A2A2A",
"c.	c #B6B6B6",
"d.	c #2C2C2C",
"e.	c #C2C2C2",
"f.	c #131313",
"g.	c #464646",
"h.	c #545454",
"i.	c #C0C0C0",
"j.	c #171717",
"k.	c #474747",
"l.	c #4D4D4D",
"m.	c #323232",
"n.	c #4B4B4B",
"o.	c #1D1D1D",
"p.	c #4F4F4F",
"q.	c #181818",
"r.	c #3A3A3A",
"s.	c #535353",
"t.	c #1B1B1B",
"u.	c #5C5C5C",
"v.	c #BBBBBB",
"w.	c #C5C5C5",
"x.	c #1E1E1E",
"y.	c #373737",
"z.	c #555555",
"A.	c #C8C8C8",
"B.	c #3E3E3E",
"C.	c #D1D1D1",
"D.	c #C6C6C6",
"E.	c #232323",
"F.	c #C3C3C3",
"G.	c #272727",
"H.	c #212121",
"I.	c #CCCCCC",
"J.	c #C9C9C9",
"K.	c #C4C4C4",
"L.	c #363636",
"M.	c #CDCDCD",
"N.	c #DCDCDC",
"O.	c #D5D5D5",
"P.	c #D8D8D8",
"Q.	c #C7C7C7",
"R.	c #0E0E0E",
"S.	c #202020",
"T.	c #282828",
"U.	c #3B3B3B",
"V.	c #D6D6D6",
"W.	c #DBDBDB",
"X.	c #DEDEDE",
"Y.	c #DDDDDD",
"Z.	c #000000",
"`.	c #E1E1E1",
" +	c #D7D7D7",
".+	c #CACACA",
"++	c #101010",
"@+	c #161616",
"#+	c #1A1A1A",
"$+	c #CECECE",
"%+	c #303030",
"&+	c #E5E5E5",
"*+	c #0F0F0F",
"=+	c #E2E2E2",
"-+	c #E9E9E9",
";+	c #D3D3D3",
">+	c #CBCBCB",
",+	c #D0D0D0",
"'+	c #D4D4D4",
")+	c #1C1C1C",
"!+	c #E0E0E0",
"~+	c #E7E7E7",
"{+	c #E3E3E3",
"]+	c #CFCFCF",
"^+	c #121212",
"/+	c #E6E6E6",
"(+	c #EDEDED",
"_+	c #F1F1F1",
":+	c #EEEEEE",
"<+	c #DFDFDF",
"[+	c #070707",
"}+	c #141414",
"|+	c #D9D9D9",
"1+	c #EBEBEB",
"2+	c #E4E4E4",
"3+	c #DADADA",
"4+	c #EAEAEA",
"5+	c #0B0B0B",
"6+	c #D2D2D2",
"7+	c #151515",
"8+	c #252525",
"9+	c #F0F0F0",
"0+	c #F5F5F5",
"a+	c #090909",
"b+	c #0C0C0C",
"c+	c #0D0D0D",
"d+	c #E8E8E8",
"e+	c #ECECEC",
"f+	c #313131",
"g+	c #414141",
"h+	c #424242",
"i+	c #111111",
"j+	c #030303",
"k+	c #2D2D2D",
"l+	c #040404",
"m+	c #191919",
"n+	c #060606",
"o+	c #222222",
"p+	c #010101",
"q+	c #0A0A0A",
"r+	c #080808",
"s+	c #050505",
"t+	c #020202",
"                                                                                                                                                                ",
"                                                                                                                                                                ",
"                                                                  . + @ @ # $ % .   & * = - ; # - >                                                             ",
"                                                              , ' ) ! ~ { ] ^ / ( _ : < [ } | ^ 1 [ 2 3 4 5 2 6 3                                               ",
"                                                        7 8 5 9 0 0 a b c d ! e f g h i j } k l ) k [ | j } m m [ 5 ( @ n                                       ",
"                                                    7 o p q f r s t s u v w r u x y c d l k z A ^ } m } A z z z ] B i ^ m ( ( _ C &                             ",
"                                                D E F n 1 G a H H I J K a L L M a N O l 1 1 z A g i B e P K N K 0 I u r c k m } | 5 > Q                         ",
"                                R S T U V W X Y Z `  .k b w M ..K P +.@.K M #.$.#.r l ) d G K w I y d f P J a M %.&.&.*.=.r ~ k ^ | | 6 -.                      ",
"                            ;.;.>.,.'.).!.~.{.].^.2 ) G I u y O 9 K N G u L @.@.y ] P c b v O +.v P l h z G w 0 H w $.%.t $.N c { A } } _                       ",
"                        /.>.(._.C :.p * <.:.& Q ; m / { y [.~ P O G G +.a 0 v c z z B g B d b }.a ! l z ] c N [.9 ~ I s $.M N @.c ! k [ |.*                     ",
"                      '.!.8 C + = 1.2.+ ^.Q , -.- ( [ z 1 ^ k h { 9 G v N @.O 9 ^ 1 | / l i f L 0 { z A z g l ] ^ i f c J v b c e B l j 6 # p                   ",
"                    3.8 & * ^.Q & Q ^.C . , 1.1.# 3 _ |. .' m ^ ~ c d G J f k < m < < 1 e O J x [.g 1 ^ z k k k ] ~ f 9 f c O e 9 f ~ g / [ # n                 ",
"                    ` & C <.:.{._.(.).4.{.<.5.n @ |.2 ' k ] i ! d G y d ~ { j  .2 j A A i e J a K B k A A A g d b @.v K y y O G @.v J d { h j 6.6.              ",
"                7.Z C Q ^.+ $ Q ^.C {.. -.8. .: ' } ] f a x r w x c ! A P i | 5 q A ^ } m k y 0 G P f { l g y u r r w x K +.[.v u N G O c ~ P / ;               ",
"                9.0.% ^.-.= >  .' ( 2 6 m ^ 1 } j ] ~ u M a.}.=.*.b j k ~ B ^ ] | } < : ( A K I K K N G P ~ v 0 0 L I N a N v r I 0 @.@.a K b y q 5.            ",
"                b.F ~.% ^.-.4 k B { h ) i ) z z { P ~ B b H c.c.%.M a e e ~ h A < 5  .|.: 1 b a.M 0 u G 9 d N r 0 I a N x @.u }.$.s a.a.c.}.x 0 ~ >             ",
"                d.o 4.8 8 , 6.6 k e 9 ~ P j 2 < e 9 9 d N t e.c.&.t M K b c { j ( ' > _ 2 } c }.s $.@.d ~ G u x a u N @.K @.u w }.M a.}.M }.0 L v l #           ",
"              f.S g.!.!.h.^.= ; ' k B ~ ~ /  .[ { ! y }.M $.i.t H %.s I O P ! ^ ' q [ [ j B b w s a ! ~ G N K c b a v [.+.v @.v x u r I I L }.s a.y q           ",
"              j.D k.0.l.0._.+ 1.@ ( : k i / ( z ! B c 0 L I $...s =.s K 9 9 G d { g A g [.0 a.M w ~ l 9 y c g i K I [.c +.@.K b y [.K v N 0 M s L u B 8.        ",
"              j.m.n.o ).~.^.<., $  .4 _ m q m h g ) B 9 x }.}.I @.b I +.! B O v u @.J a M }.a.0 d A h P f i } { u x f G b @.@.@.@.v +.f f K a N B P O 1         ",
"              o.7 o g.p.<.-.% 8 % 2.# ; 6 ( } k k ) h k g G 0 u K [.N +.c J K L M }.w I K G u +.! A ] i ~ g B b v J c y [.K N u r r a @.u r b c A / ~ g         ",
"            q.R r.'.o ].= * s.F 8 * 2.> 6 [ ^ j | ] h z ) O a 0 u x a 0 a N P K M 0 c ) ~ y L a c i l ) { P +.v J J +.K K K K @.a L ..=.s a.I 0 I v G z         ",
"            t.D >.'.)._.* <.. ~.u.p n 3 q } < ' ( } l 9 K x r I 0 I L $.}.x P d J g _ 6 9 r ..M u y ! ) ) ~ K K b @.b y G c O [.u s *.v.0 K }.%.%.$.L P #       ",
"            o.U Z Y 0.u.p :.. % Q * 5._ } m 8.; 4 6 ( | e y e ! G w e.w.i.s x f A (  .m B @.v.t u [.d e ) B c [.K y ~ e e ~ f K L ..=.0 ~ 9 0 s i.c...y -.      ",
"          9.x.y.Y g.h.^.+ p s.z.* + 5._ ' 4 @ 6.; 4 _ / z z ] z ] z K $.e.A.&.r g q } h e +.%.#.a K J G ~ e d c O d e B i i { d N a.a.K G 0 N v +.x $.! -       ",
"          R R B.g.o ` ^.1.2._.0.:.- 5.1.@  .( 2 6.' A g d f c d g m 6 A c.C.D.L i | / h f f [.M $.M I K y ~ ) ) d b y P g l l B c L =.......w e | @.L A *       ",
"        7.E.d.o n.F . , 2.; + _.. 2.5.1.3 | ] A 1 A } 6 l O d g O 9 ~ 9 y M a.a.+.i A ] { ! G $.e.F.s r x J g P b N a N +.[.y c N c.v.v.v.a.x a =.M +.} =       ",
"        G.H./.k.!.C , # _ |.@ * _._.* 8.m A e ~ P } 6 |.< ) i { { ~ d d J b v s a.b ! i d [.a.w.I.J.J.K.=.L v 0 a.}.a.M $.M $.}.L L }.}.0 x x a.H L @.j 5.      ",
"      q.D D L.(.:.5.; |.' ' 2.. h.~.> / ^ ] { e l [ 2  .2 < k i ~ f 9 e @.}.M =.c.a @.+.K ..M.N.O.O.P.M.Q.=.a.s $.}.M H t #.e.H I u x +.+.a #.D.H s b / #       ",
"      R.S.T.U.& ( ' 2 : _ 1.Q % u.= } B l A i ! A : ' | ^ ^ A { G G d +.M s K.w.$.I I M ..%.V.W.X.Y.V.M.K...w M w u c.%.D.D.%.c.}.u J f +.L %.t ..=.d / @       ",
"      Z.j.R '.6.^ [ ; <.Q _.^.5._ 1 ! ~ z m k z 1 } ^ B P l k k ~ b d v t }.e.F.v.F.&.*.e.%.e.v.C.`. +.+$.N y @.[.J r i.Q.F.v...}.v O O a s ..L H L B / @       ",
"      ++@+#+B.1.; % F !.~.C > 1 ~ [.+.J g ' | g h k ^ ] 9 ! z ^ h c c K i.D.%...&.$+Q.#.&.M a N w J.C.D...N d ! ~ O u i.Q.Q.w.v.r b d J c.&.H }.}.u l ( 4 .     ",
"      j.q.#+%+~.4.o 3.` 5.4 m P K u x J ~ ) A l e P h ) y b B i j [ G v.Y.&+$+*.H D.A.t v.u @.@.c N %.%.*.i.0 y a ..*.w.D.Q.%.=.c.a [.@.=.%.%.=...L P [ 2 +     ",
"      *+f.x.R g.Z g.h., 4 < z ! c y +.f e d y ~ P ! h 9 y K ! [ : / c H =+-+;+%.i.>+K.w.v.=.w.s a c.Q.#.s v.v.e.>+C.,+M.,+>+*.&.#.}.I $.&.w.D.D.%.0 e m 2 6.    ",
"      ++*+q.7.V Y 4.u.<.6 < } q ' < B f O O b +.b d O r r [.~ k A $.I.t %.P.C.O.P.w.J.M.>+P.N..+K.w.J.i.c.M Q.N.&+Y. +;+'+$+J.e.}.a L &.K.A.Q.D.v.u ~ 6 5 +     ",
"    t.)+j.S.G.7 Y ` o F 3 } / ^ k / 1 i { ~ i d v @.J r s I b ~ 9 $.C.D.M M.!+P.~+{+{+ +A.O.'+I.F.F.e.v.c.v.V.{+=+X.Y.P.;+]+J.w.s a.=.K.A.>+>+F.a.N ) 2 6 n     ",
"    ^+)+9.b.d.W o z.n.].; 5 [ ' m m m ] ! f P ) 9 y { ) I H c.}.&.J.e.a.y < M '+/+(+_+:+;+>+ +>+F.t M ..e.;+{+=+<+X.Y.W.P.P.;+$+Q.Q.Q.F.D.$+.+&.N O l 5 4 =     ",
"    [+}+R T %+B.h.].~.* @ 6 6 q } A l h i d J O z 4 ( / x t ..&..+|+M c @.] &.`.<+!+-+1+Y.M.w.i.#.v.s =.M.!+2+!+`.X.3+`.4+{+<+'+>+]+;+M.I.J.i.a.~ B i 5 1.2.0.  ",
"    5+}+9.%+7 n.g.s.p #  .5 2  .k ] ) /  .| ^ k g k g ] d s }.$.#.M.Q.9 e x M.&+:+;+'+N..+=.c.c.t %.i.#.A.6+C.|+C. +3+W.1+4+~+2+;+>+'+.+$+K.i.w g ! P _ , - F   ",
"    7+7.8+;.,.C 3.k.% - 3 ' [ } k ] A z _ |.q 8.e a L 0 i @.&.i.K.J.w.@.v .+!+=+=+;+,+J.*...a.I c.t i.%.H *.D.$+$+M.]+>+3+9+0+~+V.w.M...e.e...u l g ) 3 ^.$ l.  ",
"    j.G.T W p.+ $ Q = |.8.@ 6 1 h ] 1 q 3 |.( 6 { r s w y J }.*.$.u v L e.;+2+&+ +]+i.s c.L r L ..*.J.i.$.i.w.w.i.M A.Y.X.1+~+'+=+O.K.t I.D.a.u 9 B h # _.. ).  ",
"    ++T.W 3.% p 2.* # q ' ( ( } z z | ( ; 1.[ e ~ ! u f < { u c.&.L s J.M.C.P.'+Q.}.x K G O b s A.]+A.F.6+;+F.J.w.>+6+~+-+2+I.e.C.M.J.w.I.v.r w 0 v { -._.{.o   ",
"    [+R U.h.$ % = -.; q : [ | } k k q 6 _ - 1./ / ^ O d |.q O x ....M.P.>+D.A.e.$.N u u M }.L t >+I.D.w.2+!+6+$+*.;+6+3+X.N.,+0 a.e.e.#.=.0 u c.a.+.1 p % ` Z   ",
"    a+%+'.s.<.~.& # |.< | j / } A 1 5 8._ 5 ; n > q l l 5 : j ! { i t  +$+e.#.I [.I v.w.V.I.$.w }.e.>+i.&.I.;+J.t >+P.|+C. +6+w..+*.......I s M J P : {.{.!.,.  ",
"    5+y.Z ,.!.. p |.[ 1 ] l z ^ z m ' 2.1.|.5 6 4 < z ^ m 6 j e { h }.M.>+e...N G a F.A.I.J.%.6+s %.W.;+H I.|+>+#.V.$+|+C.'+ +t v.D.K.%.e.w $.0 d i 8.s.F l.Y   ",
"    b+U.F 3.l.~.& 4 ^ A 1 A k } m [ | -.u.* 8.6 5 / l k / ^ O x 0 +.x K. +D.*.M N c.w.A.M.,+t P.6+A.A.C.A.C.1+M.I.%.s A.I.]+V.#...i.H i.i.a v G P ) 2.F n.).g.  ",
"    c+W 0.3.Y Y '.` 6 / 6 2 5 q m :  .- ^.& 2.: } A A h 1 [ b }.L N b ..K.c.i.t s I.6+c.C.'+e.w.>+t &.>+O.C.d+e+X.=.w *..+w.=.&.t a.s }.~ f ^ N y / % n.).0.g.  ",
"      f+r.y.L.;.%+X , [ j m ( 5 A ^ 2 n , + n 5 | k h { h i a ..#.t =.w G k f a =.$+'+#.O.X.&.=.A.*.K.c.K.J.x #.H w.O.]+%.e.e.]+t H +.K ! 9 l O } -.3.3.F ` '.  ",
"      r.Z X 7 R H.S Y -. .5 2 |.j h [ n p $ $ 6.[ h P f O @.L *.;+$+D.a.c 1 l N s &.w.H Q.3+Q.s t =.a @..+w.c f O x v @.~ K H a.@.H c K b i P 1 + ,.r.(._.C n.  ",
"      %+g.Y B.r.7.#+V {.n n >  .2 5  .-.p <.-.-.3 ) f K N a a.K.W.V.I.K.x ! J }.&.w x v a.%.F.D.a.a.+.u F.#.c.K c v +.c i m 1 d 8.! ! A k g j 5.k./.g+!.& p p.  ",
"      7.f+Y h+B.b.i+D !., $ ; q 3 3 2 _ 2.% ^.n 8./ P r ..F.M.3+P.I.Q.&.@.{ d L s 0 a c.v.t F.M h { L N G v O @.1 B d l | @ n ] l ] i h q _ n 0.L.%+,.l.. * o   ",
"    R.7.S r.3.X E.@+#+U.].= 1.> 1.@  . .|.-., ; 2 5 P v.e.V./+`.,+e.A.t J B { @.L I ..K.i.$+6+e.u [.y ~ A y r =.}.G h }.&./ [ g G v =.K q p 4.4.g+X !.% Q C B.  ",
"    j+j.R k+h+k.k+*+^+D g+u., $ & p n = > 6.2.+ > | A a 0  +`.'+J.D.D.N z h g e P P [.t a.H ;+V.&.&.H w 9 ) 9 l h P l l b A { G @ [ c i : p ~.h.,.8 # 3 5.` U.  ",
"      l+*+S h+g.V m+c+)+T g.s.~.8 4.& 2.; > 4 ; = ' 4 q ' B F.;+K.=.a.[.{ h k 1 ] j B $.J.M.P.i.9 K F.e.u b A | ! %.6+v  .5 [ e B * 2 q 1.. n.E 3.& _ ( 6.0.    ",
"      Z.*+R >.B.b.m+++)+b.W X 0.].u.-.n n 3 _ 5.|.] x N b [.0 F.=.c.r [.9 k < ] B { P u K.]+C.a.h P c.c.K J G G w F.,+M.O k 5 1 5 2 5 q -.l.r.B.~.; : : <.B.    ",
"      Z.R.H.L.,.b.@+@+E.U E W B.4., @ 4 8.|.> + -.5.z m 9 c.K [.t D.w [.! ] z i 9 K u *.D.c.i 1 l 9 i 9 N K @.K b x b +.z m ' G / 4 # ; z.;.;.3.^.+ > - p.m.    ",
"      Z.n+S.d.U o+R.)+T r.k.Z ,.B.n.:.- |.1.6.|.6.6. .} d w.H A c K ~ { A ] { d c $.=.i.c.! : / m : : 3 ( ) 9 G z j B 1 3 ( 5 v ! n g.U.m.>.` ].p @ > _.X m.    ",
"      Z.p+j.t.7+i+q+q.D ;.E X Z Y '.z.Q ;  .< ^ @ @ # q J %.$.< ( ) k ( ( < y L K a M x q 2.:.> -.~.u.{.% 8.: 6.6.2.-.= 6.- -.{.= ].X /.Y % -.n * 5.^.7 f+d.    ",
"      Z.Z.5+q.^+[+j+*+E.m.y.U.).h.8 p - |.< z { ( ; p ; h b }.g :.8.[ |.2 5 l K c g j 3 8.+ h.8 ` F (.` ~.{.1.% 6.2 6.6.5 q 1.).R ^+m.o !.8 {.# - o f+m.;.S     ",
"      Z.Z.Z.a+R.[+Z.q+H.y.,.X ).h.% <.@ ^ { ] { l 2.C {.|.! b O ( 4 m z j A m  . .8.^.` > 4 :.z.g.g.3.g+g.^.2.2.' |.# $ - :.z.(.B.r.W r.l.0.o _.!.U m.U.m.      ",
"      Z.Z.Z.j+r+q+j+[+x.V >.7 g+0.u.p {.2.} ! ) i < 5.& @ [ < z | m [ g l ~ { ; C _.8 ` $ $ Q 1.2.8 ,.h+'.u.- > n ~.8 % z.Y y.` {.p.3.Y h.8 h+E R 9.B.r.G.      ",
"      Z.Z.Z.Z.j+[+s+j+}+S.R W p.].. , ^.* # A ^ 1 ] : # 8.|.3 [ ' | | / ) 9 +.( -.* s.p._.~.- : n p {.1.n 5.8.5 j  .Q = $ * h.^.; F k.k.3.'.T D G.r.z.o         ",
"      t+j+Z.Z.p+*+r+Z.}+U U.n.u.. u.C ^.:. .! m @ } 1 _ ; 8.8.q 2.# A x A |  .2 3 * ^.2.6 1.= > p 8. .> 8.@ 2.-. .' 5.5.5.- n $ u.m.y.B./.;.7 t.d.(.F ;.        ",
"      s+a+j+Z.p+^+q+s+x.m.7 0.^.. % Q + 8.A c ~ ) ( ; 2.2.@ _ 5 } - ; ) P / $ C , :.<.2 m ( ^.$ 6.4 ; :., <.. |.6.; 3 4 |.# + $ u.>.%+U U U.k.7 {.+ s.>.        ",
"      s+++b+t+p+q+R.q+q.T.L.h.-.5.-.2.3 |.k { m m 8., + p 5.@ 8.5 k 2 @ - -.1.p ~.{.:.+ Q 1.4 p ` . * 5.- - @ q [ 6 4 5.5.] P n s.F '.y.L.k.Z {.3 @ % ^.        ",
"      l+^+7+n+Z.[+c+q+++S.W 8 <.+ 5.@ _ 8.} ( p _ 3 ~.~.& p 2.3 = 6._ 1.> 2.{.{.C % {.z., n $ ; 5._.:., p 2.2 4 3 5 4 4 / | < > h.k.0.` s.F ^._ |.* = $         ",
"        b+j.5+t+q+f.++f.x.E s.* 2.- _ | B +.9 6 [ 4 u.l.F ].<.5.<.Q :.% 6.q -.` & h.l.<.1.n :.& - - ' 3 3 8.= 1.= > : 3 4  .$ % F E 0.Q $ n m A > % * F         ",
"        s+*+R.s+5+f.*+R.H.7 F ^.-.5._ z c v y l k q - Q ` s.h.% . . _.. - 5 # p $ <.{.p 2.|.; n @ p > q : + ` ~.$ 8.n + = $ ^.n.Z F * -.= 1.[ z p . F k+        ",
"          j+[+t+s+R.r+[+t.T '.s._.. -.3 |.' | 5  .: - ].!.s.p.0.8 * * % {.^., p u.. Q # ; @ n _ 5.C =  .q , z.h.- q ; _.Q :._.n.).& > 2.+ . 4 3 4.:.>.l+        ",
"          Z.Z.Z.s+a+l+l+*+o+y.Z o ).u.<.p , ; n Q z.h.l.3.p.0.o p.. $ * s.{.~.].~.h.; i } 5 [ 4 <.3 8.6.@ - u.. <.5.5.Q F p.F l.s.<.- <.p 8 , _.l.* G.          ",
"          Z.Z.Z.p+s+r+[+++o+T %+/.o & * Q -.3 # . ` ].].3.3.3.k.g.n._.<.~.8 {.F s.{.l [.|.= - = <.2.1.5.4 ( } 2 # 5.2.2.{.o (.4.u.1.@ <.C p.u.o C ; p+          ",
"            Z.Z.Z.r+r+s+*+q.m+)+d.k.` {.].Q <.$ -.% ` p.k.3.l.s.Q ~.{.= 5 -.s.o ` 1.4 2.2.8.-.p ^.` u.p 2 l } ' ' |.6.n ].k.F _.:.- [ 5 * z.& 8 + + Z.          ",
"            Z.Z.s+r+[+[+R.j.)+)+d.h+!.h._.= $ , <.].F !.4.4.s.].-.. (.l.` ).;.W o > 8.F ` * = ` % 4.F * u.F $ 6.2 <  .# 2.Q h.s.~.- [ 6 u.:.* 1.|.p l+          ",
"            Z.j+b+b+q+R.f.m+m+o.f+Z z.^.; - C $ -.% u.~.` ~.~.].^.<.8 l.g.>.f+).h.,.U.h.Q p 8 & + u.8 ^.= C p ; @ @ _ 4 _  .8.= Q = _ ^.p.1.-.@ @ s.            ",
"            Z.t+f.}+R.++i+7.G.%+U.n.{.<.* h.p.^.^.& :.Q u.].{._.C 2.. l.).l.z.$ Q l.!.k.g.~.:.* -.~.o l.; # 1.; 6.5.* -.= , ^., <.$ <.s.% <.:.6.u.;.            ",
"              Z.7+o.m+i+7+R m.7 ,.Z p.!.3.'.).0.s.% * p u.` z.h.).3.).h+Y 0.h.4.o 3.{.(.B.).s.8 . ` l.].@ 6.> 3 $ :., * ^.% 8 u.:.& {.` ~.` & 5.p.*+            ",
"              Z.a+@+o.t.q.t.8+/.V ;.7 B.'.l.l.Z Z p.s.s.z.].!.l.Z L.U.W T B.X r.,.3.h.(.B.g+).~.s.{.; > 3 3 - 1.u._.$ - n 2.<.^.:.$ = :.s.` . * y.              ",
"                Z.n+f.)+7+R.q.R T.m.'.Y B.k.n.n.).'.,.'.Y Z h+o '.r.7 W o 3.l.^.{.4.{.n.V y.X 0.(.).+ -.C p 5.6.; -._ | 5 @ # 5.# | [ $ n.4.z.Z                 ",
"                Z.[+++R.i+q+5+#+S W Y g+V W '.o Y B.E m.S L.X X B.E X s.(.>.l.` l.l.` u.(.7 7 U.>.h+F F F # _ ; |.' / ) { ) ) i ~ ] 6.. , & B.}+                ",
"                    s+j+[+c+r+l+[+++R T d.G.d.m.U V y.V m.k+R b.U L.y.E.'.s.k.,.k.!.,.Y , u._.C !.% :.& p p -.+ 2.@ ( ( ( / m ' 5.z.Q :.s.%+q+                  ",
"                      Z.Z.l+l+Z.Z.Z.l+b+n+*+H.G.E.R E.7.)+D V S G.T ;.Z o 7 U %+m.y.V 7./.Z >.n.h.X y.E >.V k+L.;.f+b.k+%+H.o+c+5+b.m.o+R.a+                    ",
"                          Z.Z.Z.Z.Z.Z.Z.t+j+j+n+j+Z.Z.p+q+q.o.R T k+;.V D S 7 g.E G./.g+U.r.Z g+h+/.7+Z.Z.Z.Z.Z.Z.Z.Z.Z.t+f.q.)+x.#+q.j.b+                      ",
"                                      Z.Z.Z.Z.Z.Z.Z.Z.l+c+m+7+f.m+E.T %+g+8 % g.>.,.U.>.B.g.Z V 7.5+l+t+t+p+t+p+p+[+5+++)+8+T ;.b.)+c+                          ",
"                                                  Z.Z.p+j+r+s+p+5+7+*+j./.,.Y g.g.B.B.,.y.T o+Z.Z.j+l+l+n+r+s+t+Z.t+s+b+i+}+7+^+q+                              ",
"                                                      Z.Z.Z.Z.Z.t+p+Z.j+c+n+j.b.S 8+o+E.q.Z.Z.p+Z.p+s+b+r+s+p+Z.Z.Z.Z.Z.Z.Z.Z.Z.                                ",
"                                                          Z.Z.Z.Z.Z.Z.Z.p+s+r+a+r+q+j+Z.Z.Z.p+p+a+b+s+[+j+Z.Z.Z.  Z.Z.Z.                                        ",
"                                                                  Z.Z.Z.Z.p+Z.Z.Z.Z.Z.Z.Z.                                                                      ",
"                                                                                                                                                                "};
