/* XPM */
static xpm_row_t const num0L_xpm[] = {
"60 70 2 1",
" 	c None",
".	c #FFFFFF",
"                                                            ",
"                                                            ",
"                                                            ",
"                                                            ",
"                                                            ",
"                         ...........                        ",
"                      ..................                    ",
"                   .......................                  ",
"                  ..........................                ",
"                .............................               ",
"               .............      .............             ",
"              ............         .............            ",
"             ............           ............            ",
"            .............            ............           ",
"            ............             .............          ",
"           .............              .............         ",
"           .............              .............         ",
"          ..............              ..............        ",
"          .............               ..............        ",
"         ..............               ..............        ",
"         ..............               ...............       ",
"         ..............                ..............       ",
"        ...............                ..............       ",
"        ...............                ...............      ",
"        ...............                ...............      ",
"        ...............                ...............      ",
"       ................                ...............      ",
"       ................                ...............      ",
"       ................                ................     ",
"       ................                ................     ",
"       ................                ................     ",
"       ................                ................     ",
"       ................                ................     ",
"       ................                ................     ",
"       ................                ................     ",
"       ................                ................     ",
"       ................                ................     ",
"       ................                ................     ",
"       ................                ................     ",
"       ................                ................     ",
"       ................                ................     ",
"       ................                ................     ",
"       ................                ...............      ",
"       ................                ...............      ",
"        ...............                ...............      ",
"        ...............                ...............      ",
"        ...............                ...............      ",
"        ...............                ..............       ",
"         ..............                ..............       ",
"         ..............               ...............       ",
"         ..............               ..............        ",
"          .............               ..............        ",
"          ..............              ..............        ",
"           .............              .............         ",
"           .............              .............         ",
"            ............             .............          ",
"            .............            ............           ",
"             ............           .............           ",
"              ............         .............            ",
"               .............      .............             ",
"                .............................               ",
"                  ..........................                ",
"                   .......................                  ",
"                      ..................                    ",
"                         ...........                        ",
"                                                            ",
"                                                            ",
"                                                            ",
"                                                            ",
"                                                            "};
