/* XPM */
static xpm_row_t const num8_xpm[] = {
"20 25 2 1",
" 	c None",
".	c #FFFFFF",
"                    ",
"                    ",
"      .......       ",
"    ...........     ",
"    ...     ...     ",
"   ...       ...    ",
"   ...       ...    ",
"   ...       ...    ",
"   ...       ...    ",
"   ...       ...    ",
"    ...     ...     ",
"      .......       ",
"     .........      ",
"    ...     ...     ",
"   ...       ...    ",
"  ...         ...   ",
"  ...         ...   ",
"  ...         ...   ",
"  ...         ...   ",
"  ...         ...   ",
"   ...       ...    ",
"   ....     ....    ",
"    ...........     ",
"      .......       ",
"                    "};
