/* XPM */
static xpm_row_t const score_xpm[] = {
"95 25 2 1",
" 	c None",
".	c #FFFFFF",
"                                                                                               ",
"      ........                                                                                 ",
"    ............                                                                               ",
"   .............                                                                               ",
"   ....       ..                                                                               ",
"  ....                                                                                         ",
"  ...                                                                                          ",
"  ...                     ......          ......         ..   ....      ......         ...     ",
"  ...                   ..........      ..........       ..  .....    .........        ...     ",
"  ....                 ...........     ............      .........   ...........       ...     ",
"   .......            ....      ..     ....    .....     .....      ....     ....      ...     ",
"    ..........       ....             ....       ...     ...       ...         ..              ",
"      .........      ...              ...        ...     ...       ...         ...             ",
"          ......     ...              ...         ...    ...       ...............             ",
"             ....    ...              ...         ...    ..        ...............             ",
"              ...    ...              ...         ...    ..        ...............             ",
"              ...    ...              ...         ...    ..        ...                         ",
"              ...    ...              ...        ...     ..        ...                         ",
"              ...    ....             ....       ...     ..        ....         .              ",
"  ..        .....     ....      ..     ....    .....     ..         ....      ...      ...     ",
"  ..............       ...........     ............      ..          ............      ...     ",
"  .............         ..........      ..........       ..           ..........       ...     ",
"    .........             ......          ......         ..             ......         ...     ",
"                                                                                               ",
"                                                                                               "};
